<?xml version="1.0" encoding="UTF-8" standalone="no"?>

<svg
   width="800"
   height="800"
   viewBox="0 0 48 48"
   id="Layer_2"
   data-name="Layer 2"
   version="1.1"
   sodipodi:docname="bitwarden.svg"
   inkscape:export-filename="bitwarden.svg"
   inkscape:export-xdpi="96"
   inkscape:export-ydpi="96"
   xmlns:inkscape="http://www.inkscape.org/namespaces/inkscape"
   xmlns:sodipodi="http://sodipodi.sourceforge.net/DTD/sodipodi-0.dtd"
   xmlns="http://www.w3.org/2000/svg"
   xmlns:svg="http://www.w3.org/2000/svg">
  <sodipodi:namedview
     id="namedview1"
     pagecolor="#505050"
     bordercolor="#eeeeee"
     borderopacity="1"
     inkscape:showpageshadow="0"
     inkscape:pageopacity="0"
     inkscape:pagecheckerboard="0"
     inkscape:deskcolor="#505050" />
  <defs
     id="defs1">
    <style
       id="style1">.cls-1{fill:none;stroke:#a6e3a1;stroke-linecap:round;stroke-linejoin:round;}</style>
  </defs>
  <path
     class="cls-1"
     d="M 37.230209,25.777724 V 7.5425034 H 23.999994 V 39.919553 a 40.609088,39.173202 0 0 0 6.289584,-3.902741 Q 37.265087,30.790728 37.265087,25.76651 Z M 42.891998,3.9089171 V 25.777724 a 13.462732,12.986707 0 0 1 -0.988198,4.900856 18.857126,18.190361 0 0 1 -2.453054,4.272829 27.343995,26.377146 0 0 1 -3.487755,3.633587 40.539332,39.105914 0 0 1 -3.743522,2.938269 c -1.162585,0.77382 -2.32517,1.513995 -3.569135,2.242955 -1.243966,0.728961 -2.115905,1.121478 -2.639068,1.413062 l -1.255592,0.571953 a 1.7787547,1.7158603 0 0 1 -1.534612,0 L 21.965471,45.179282 C 21.442307,44.932557 20.558743,44.461536 19.326403,43.76622 18.094063,43.070904 16.896601,42.341944 15.757268,41.523265 A 40.539332,39.105914 0 0 1 12.025371,38.528921 27.343995,26.377146 0 0 1 8.5376153,34.895335 18.857126,18.190361 0 0 1 6.0961876,30.67858 13.462732,12.986707 0 0 1 5.1079905,25.833799 V 3.9089171 A 1.9066391,1.8392228 0 0 1 7.0030037,2.080909 H 40.996984 a 1.9066391,1.8392228 0 0 1 1.895014,1.8280081 z"
     id="path1"
     style="stroke-width:3.6;stroke-dasharray:none;stroke-dashoffset:0" />
</svg>
