<?xml version="1.0" encoding="UTF-8" standalone="no"?>

<svg
   fill="#000000"
   width="800"
   height="800"
   viewBox="0 0 24 24"
   role="img"
   version="1.1"
   id="svg1"
   sodipodi:docname="darkreader.svg"
   xmlns:inkscape="http://www.inkscape.org/namespaces/inkscape"
   xmlns:sodipodi="http://sodipodi.sourceforge.net/DTD/sodipodi-0.dtd"
   xmlns="http://www.w3.org/2000/svg"
   xmlns:svg="http://www.w3.org/2000/svg">
  <defs
     id="defs1">
    <marker
       style="overflow:visible"
       id="Dot"
       refX="0"
       refY="0"
       orient="auto"
       inkscape:stockid="Dot"
       markerWidth="1"
       markerHeight="1"
       viewBox="0 0 1 1"
       inkscape:isstock="true"
       inkscape:collect="always"
       preserveAspectRatio="xMidYMid">
      <path
         transform="scale(0.5)"
         style="fill:context-stroke;fill-rule:evenodd;stroke:none"
         d="M 5,0 C 5,2.76 2.76,5 0,5 -2.76,5 -5,2.76 -5,0 c 0,-2.76 2.3,-5 5,-5 2.76,0 5,2.24 5,5 z"
         sodipodi:nodetypes="sssss"
         id="path17" />
    </marker>
  </defs>
  <sodipodi:namedview
     id="namedview1"
     pagecolor="#505050"
     bordercolor="#eeeeee"
     borderopacity="1"
     inkscape:showpageshadow="0"
     inkscape:pageopacity="0"
     inkscape:pagecheckerboard="0"
     inkscape:deskcolor="#505050" />
  <title
     id="title1">Dark Reader icon</title>
  <path
     d="M 18.281,8.7099741 C 18.101,7.0067737 17.355,5.51762 16.176,4.4565599 A 6.315,6.4366908 0 0 0 12,2.8512094 c -1.538,0 -3.026,0.5707913 -4.176,1.6053505 C 6.646,5.51762 5.9,7.0067737 5.72,8.7099741 a 4.968,5.063734 0 0 1 0.987,-0.1029463 4.587,4.675392 0 0 1 4.240001,2.8814762 l 2.106999,-0.002 a 4.57,4.6580645 0 0 1 4.241,-2.8794382 4.88,4.9740382 0 0 1 0.987,0.1029463 z M 3.624,16.784632 1.412,22.996064 H 0 L 2.662,15.53093 A 4.621,4.7100472 0 0 1 2.261,14.464773 4.803,4.8955544 0 0 1 2.118,13.28242 4.7,4.7905696 0 0 1 2.692,10.955426 4.43,4.5153666 0 0 1 4.268,9.2817846 C 4.348,7.0322554 5.211,5.023274 6.698,3.5810068 A 7.7,7.8483799 0 0 1 12,1.412 c 1.973,0 3.876,0.7827995 5.305,2.1710454 1.486,1.4443057 2.348,3.4532871 2.427,5.7038356 a 4.42,4.5051739 0 0 1 1.576,1.671603 c 0.383,0.706354 0.576,1.506481 0.574,2.323936 0,0.397515 -0.047,0.795031 -0.142,1.181334 -0.091,0.368976 -0.225,0.726739 -0.402,1.065137 L 24,22.996064 h -1.412 l -2.212,-6.21449 c -0.41,0.374072 -0.879,0.661506 -1.383,0.859245 A 4.653,4.7426639 0 0 1 17.294,17.95985 4.635,4.724317 0 0 1 14.162,16.709206 C 13.335,15.929464 12.818,14.86025 12.719,13.643241 H 11.28 c -0.102999,1.21497 -0.62,2.284185 -1.4470001,3.062907 A 4.637,4.7263556 0 0 1 6.705,17.95985 4.644,4.7334904 0 0 1 5.007,17.643877 4.514,4.6009853 0 0 1 3.623,16.784632 Z m 11.2,-3.511386 a 2.462,2.509443 0 0 0 2.489,2.52779 2.4700183,2.5176159 0 0 0 -0.019,-5.035194 2.464,2.5114816 0 0 0 -2.47,2.507404 z m -10.589,0.01019 a 2.463,2.5104623 0 0 0 2.47,2.517597 2.469,2.5165779 0 0 0 2.472,-2.517597 2.469,2.5165779 0 0 0 -2.471,-2.517597 2.463,2.5104623 0 0 0 -2.47,2.517597 z M 9.8820003,19.39906 C 9.9150019,18.967909 10.209,18.682513 10.588,18.679455 a 0.681,0.69412295 0 0 1 0.706,0.719605 v 2.877399 a 0.681,0.69412295 0 0 1 -0.706,0.719605 c -0.38,-0.0031 -0.6730001,-0.288453 -0.7059997,-0.719605 v -2.87638 z m 2.8239997,0 c 0.033,-0.431151 0.326,-0.716547 0.706,-0.719605 a 0.681,0.69412295 0 0 1 0.706,0.719605 v 2.877399 a 0.681,0.69412295 0 0 1 -0.706,0.719605 c -0.38,-0.0031 -0.673,-0.288453 -0.706,-0.719605 v -2.87638 z m 2.823,1.439209 c 0.033,-0.431151 0.327,-0.716547 0.706,-0.719604 a 0.681,0.69412295 0 0 1 0.706,0.719604 v 1.43819 a 0.681,0.69412295 0 0 1 -0.706,0.719605 c -0.38,-0.0031 -0.673,-0.288453 -0.706,-0.719605 z m -8.47,0 C 7.091999,20.407118 7.385,20.121722 7.7650001,20.118665 A 0.681,0.69412295 0 0 1 8.471,20.838269 v 1.43819 A 0.681,0.69412295 0 0 1 7.7650001,22.996064 C 7.385,22.993006 7.092,22.707611 7.059,22.276459 Z"
     id="path1"
     style="fill:#a6e3a1;fill-opacity:1;stroke:none;stroke-width:1.00959;stroke-opacity:1;marker-start:url(#Dot);paint-order:stroke fill markers" />
</svg>
