<?xml version="1.0" encoding="UTF-8" standalone="no"?>
<svg
   version="1.1"
   viewBox="0 0 128 128"
   height="128"
   width="128"
   id="svg5"
   sodipodi:docname="ublock-2.svg"
   inkscape:export-filename="ublock.svg"
   inkscape:export-xdpi="96"
   inkscape:export-ydpi="96"
   xmlns:inkscape="http://www.inkscape.org/namespaces/inkscape"
   xmlns:sodipodi="http://sodipodi.sourceforge.net/DTD/sodipodi-0.dtd"
   xmlns="http://www.w3.org/2000/svg"
   xmlns:svg="http://www.w3.org/2000/svg">
  <defs
     id="defs5" />
  <sodipodi:namedview
     id="namedview5"
     pagecolor="#505050"
     bordercolor="#eeeeee"
     borderopacity="1"
     inkscape:showpageshadow="0"
     inkscape:pageopacity="0"
     inkscape:pagecheckerboard="0"
     inkscape:deskcolor="#505050" />
  <g
     style="display:inline;opacity:1;fill:none;stroke:#a6e3a1;stroke-width:10;stroke-dasharray:none;stroke-opacity:1"
     id="g3"
     transform="matrix(0.94763617,0,0,0.91662816,3.3512859,5.3357976)">
    <g
       style="display:inline;fill:none;fill-opacity:1;stroke:#a6e3a1;stroke-width:16.2101;stroke-linecap:round;stroke-miterlimit:4;stroke-dasharray:none;stroke-opacity:1"
       transform="matrix(0.6778654,0,0,0.56141828,-241.07537,-247.27712)"
       id="g1" />
    <g
       transform="matrix(-0.6945203,0,0,0.56109687,375.02964,-247.42947)"
       style="display:inline;fill:none;fill-opacity:1;stroke:#a6e3a1;stroke-width:16.0191;stroke-linecap:round;stroke-linejoin:round;stroke-miterlimit:4;stroke-dasharray:none;stroke-opacity:1"
       id="g2">
      <path
         d="m 447.83376,669.09921 c -80.63119,-57.03115 -80.63119,-57.03115 -80.63119,-199.60903 34.55623,0 46.07497,0 80.63119,-28.51558 m 0,228.12461 c 80.6312,-57.03115 80.6312,-57.03115 80.6312,-199.60903 -34.55623,0 -46.07497,0 -80.6312,-28.51558"
         style="fill:none;fill-opacity:1;fill-rule:nonzero;stroke:#a6e3a1;stroke-width:16.0191;stroke-linecap:round;stroke-linejoin:round;stroke-miterlimit:4;stroke-dasharray:none;stroke-opacity:1"
         id="path1" />
    </g>
  </g>
  <circle
     cy="60"
     cx="76.719345"
     style="display:inline;fill:none;fill-opacity:1;stroke:#a6e3a1;stroke-width:9;stroke-miterlimit:4;stroke-dasharray:none;stroke-opacity:1"
     id="ellipse3"
     r="16" />
  <g
     style="fill:#a6e3a1;fill-opacity:1;stroke:#a6e3a1;stroke-width:2;stroke-miterlimit:4;stroke-dasharray:none;stroke-opacity:1"
     transform="matrix(1.0018026,0,0,0.99820067,-17.872548,-17.32535)"
     id="g4">
    <path
       d="m 81.72523,81.471945 c 0,11.019828 -4.991003,16.028841 -15.97121,16.028841 -10.980207,0 -15.97121,-5.009013 -15.97121,-16.028841 V 57.428683 h 7.985605 v 24.043262 c 0,7.012618 0.9982,8.014421 7.985605,8.014421 6.987404,0 7.985605,-1.001803 7.985605,-8.014421 V 57.428683 h 7.985605 z"
       style="fill:#a6e3a1;fill-opacity:1;stroke:#a6e3a1;stroke-width:0;stroke-linecap:square;stroke-linejoin:miter;stroke-miterlimit:4;stroke-dasharray:none;stroke-opacity:1"
       id="path3" />
  </g>
</svg>
